<svg width="24" height="24" viewBox="0 0 24 24" fill="none" xmlns="http://www.w3.org/2000/svg">
<path fill-rule="evenodd" clip-rule="evenodd" d="M13 17.9291V19H14C15.1046 19 16 19.8954 16 21H8C8 19.8954 8.89543 19 10 19H11V17.9291C9.0165 17.6454 7.30124 16.5302 6.21866 14.9478C3.50458 14.5739 2 12.2228 2 9V6C2 4.89543 2.89543 4 4 4H5.26756C5.61337 3.4022 6.25972 3 7 3H17C17.7403 3 18.3866 3.4022 18.7324 4H20C21.1046 4 22 4.89543 22 6V9C22 12.2228 20.4954 14.5739 17.7813 14.9478C16.6988 16.5302 14.9835 17.6454 13 17.9291ZM5 6H4V9C4 10.5313 4.39028 11.6746 5.12783 12.3385C5.04394 11.9052 5 11.4578 5 11V6ZM19 11V6H20V9C20 10.5313 19.6097 11.6746 18.8722 12.3385C18.9561 11.9052 19 11.4578 19 11ZM17.1653 5H7.19034V11C7.19034 12.0069 7.48795 12.9442 8 13.7289L17.1653 5Z" fill="#A59E86"/>
</svg>
