<svg width="22" height="22" viewBox="0 0 22 22" fill="none" xmlns="http://www.w3.org/2000/svg">
<path fill-rule="evenodd" clip-rule="evenodd" d="M11 22C4.92487 22 0 17.0751 0 11C0 4.92487 4.92487 0 11 0C17.0751 0 22 4.92487 22 11C22 17.0751 17.0751 22 11 22ZM14.2746 13.2979L15.9105 14.4484C14.7945 16.0352 12.9775 17 10.9999 17C9.02236 17 7.20537 16.0352 6.08936 14.4484L7.72526 13.2979C8.47062 14.3576 9.68042 15 10.9999 15C12.3194 15 13.5292 14.3576 14.2746 13.2979ZM13 10V8H15V10H13ZM7 10V8H9V10H7Z" fill="#A59E86"/>
</svg>
