<svg width="24" height="24" viewBox="0 0 24 24" fill="none" xmlns="http://www.w3.org/2000/svg">
<path fill-rule="evenodd" clip-rule="evenodd" d="M12 23C5.92487 23 1 18.0751 1 12C1 5.92487 5.92487 1 12 1C18.0751 1 23 5.92487 23 12C23 18.0751 18.0751 23 12 23ZM12 21C16.9706 21 21 16.9706 21 12C21 7.02944 16.9706 3 12 3C7.02944 3 3 7.02944 3 12C3 16.9706 7.02944 21 12 21ZM6.80643 14C6.80643 17.2316 8.67459 19 12.0321 19C15.4003 19 17.2358 17.2145 17.1434 13.9715L17.1158 13H6.80643V14ZM14 8H17V10H14V8ZM10 8H7V10H10V8Z" fill="#A59E86"/>
</svg>
