<svg width="24" height="24" viewBox="0 0 24 24" fill="none" xmlns="http://www.w3.org/2000/svg">
<path fill-rule="evenodd" clip-rule="evenodd" d="M12 23C5.92487 23 1 18.0751 1 12C1 5.92487 5.92487 1 12 1C18.0751 1 23 5.92487 23 12C23 18.0751 18.0751 23 12 23ZM15.2746 14.2979L16.9105 15.4484C15.7945 17.0352 13.9775 18 11.9999 18C10.0224 18 8.20537 17.0352 7.08936 15.4484L8.72526 14.2979C9.47062 15.3576 10.6804 16 11.9999 16C13.3194 16 14.5292 15.3576 15.2746 14.2979ZM14 11V9H16V11H14ZM8 11V9H10V11H8Z" fill="black"/>
</svg>
