<svg width="40" height="40" viewBox="0 0 40 40" fill="none" xmlns="http://www.w3.org/2000/svg">
<path fill-rule="evenodd" clip-rule="evenodd" d="M21.5003 0C27.9919 0 33.273 5.23356 33.273 11.6667C33.273 17.2379 29.0623 25.2763 23.0504 26.4932L24.6956 28.667C24.8869 28.9193 24.9173 29.257 24.7752 29.5394C24.6323 29.8218 24.3416 30 24.023 30H22.2855C22.1366 31.1543 21.6913 31.7223 21.3163 32.1875C20.9345 32.6595 20.6594 33.0005 20.6594 34.1667C20.6594 35.3328 20.9345 35.6738 21.3163 36.1458L21.3171 36.1468C21.7736 36.713 22.3412 37.4172 22.3412 39.1667C22.3412 39.6273 21.9651 40 21.5003 40C21.0355 40 20.6594 39.6273 20.6594 39.1667C20.6594 38.0005 20.3843 37.6595 20.0024 37.1875L20.0016 37.1865C19.5452 36.6203 18.9775 35.9161 18.9775 34.1667C18.9775 32.4172 19.5452 31.7131 20.0016 31.1468L20.0024 31.1458C20.2705 30.8144 20.4798 30.5333 20.5843 30H18.9775C18.6589 30 18.3682 29.8218 18.2253 29.5394C18.0833 29.257 18.1136 28.9193 18.305 28.667L19.9501 26.4932C13.9382 25.2763 9.72754 17.2379 9.72754 11.6667C9.72754 5.23356 15.0087 0 21.5003 0ZM14.773 11.6667C14.773 9.12109 16.2052 6.83268 18.5111 5.69499C18.9274 5.48991 19.0966 4.98942 18.8897 4.57764C18.6827 4.16585 18.1777 3.9974 17.7622 4.20247C14.8806 5.625 13.0912 8.4847 13.0912 11.6667C13.0912 12.1273 13.4673 12.5 13.9321 12.5C14.3969 12.5 14.773 12.1273 14.773 11.6667Z" fill="#2D3435"/>
<path d="M38.3185 4.44987C38.3185 3.87126 38.5509 3.62061 38.9369 3.20638C39.3853 2.7238 40.0004 2.06299 40.0004 0.833333C40.0004 0.372721 39.6242 0 39.1594 0C38.6946 0 38.3185 0.372721 38.3185 0.833333C38.3185 1.41195 38.0861 1.6626 37.7002 2.07682C37.2518 2.55941 36.6367 3.22021 36.6367 4.44987C36.6367 5.67952 37.2518 6.34033 37.7002 6.82292C38.0861 7.23714 38.3185 7.48779 38.3185 8.06559C38.3185 8.64258 38.0861 8.89242 37.7002 9.30583C37.2518 9.78841 36.6367 10.4484 36.6367 11.6764C36.6367 12.137 37.0128 12.5098 37.4776 12.5098C37.9424 12.5098 38.3185 12.137 38.3185 11.6764C38.3185 11.1003 38.5509 10.8504 38.9361 10.437C39.3853 9.95443 40.0004 9.29443 40.0004 8.06559C40.0004 6.83675 39.3861 6.17594 38.9369 5.69336C38.5509 5.27913 38.3185 5.02848 38.3185 4.44987Z" fill="#2D3435"/>
<path d="M33.2726 28.3333C34.2015 28.3333 34.9545 27.5871 34.9545 26.6667C34.9545 25.7462 34.2015 25 33.2726 25C32.3438 25 31.5908 25.7462 31.5908 26.6667C31.5908 27.5871 32.3438 28.3333 33.2726 28.3333Z" fill="#2D3435"/>
<path d="M13.091 35.0001C14.0198 35.0001 14.7728 34.2539 14.7728 33.3334C14.7728 32.4129 14.0198 31.6667 13.091 31.6667C12.1622 31.6667 11.4092 32.4129 11.4092 33.3334C11.4092 34.2539 12.1622 35.0001 13.091 35.0001Z" fill="#2D3435"/>
<path d="M5.52273 5C6.91599 5 8.04545 3.88071 8.04545 2.5C8.04545 1.11929 6.91599 0 5.52273 0C4.12946 0 3 1.11929 3 2.5C3 3.88071 4.12946 5 5.52273 5Z" fill="#2D3435"/>
</svg>
