<svg width="32" height="32" viewBox="0 0 32 32" fill="none" xmlns="http://www.w3.org/2000/svg">
<g id="24 / basic / eye">
<path id="icon" fill-rule="evenodd" clip-rule="evenodd" d="M16 5.33337C19.6368 5.33337 23.1143 7.24087 26.3551 10.3749C27.4607 11.4441 28.461 12.5856 29.3415 13.7275C29.8728 14.4166 30.2501 14.9587 30.4566 15.2816L30.9161 16L30.4566 16.7184C30.2501 17.0414 29.8728 17.5835 29.3415 18.2725C28.461 19.4145 27.4607 20.556 26.3551 21.6252C23.1143 24.7592 19.6368 26.6667 16 26.6667C12.3633 26.6667 8.88579 24.7592 5.64498 21.6252C4.53935 20.556 3.53911 19.4145 2.65858 18.2725C2.12724 17.5835 1.75 17.0414 1.54345 16.7184L1.08398 16L1.54345 15.2816C1.75 14.9587 2.12724 14.4166 2.65858 13.7275C3.53911 12.5856 4.53935 11.4441 5.64498 10.3749C8.88579 7.24087 12.3633 5.33337 16 5.33337ZM27.2297 15.3559C26.4235 14.3103 25.5069 13.2643 24.5013 12.2919C21.71 9.59256 18.8068 8.00006 16 8.00006C13.1932 8.00006 10.29 9.59256 7.49873 12.2919C6.49312 13.2643 5.57652 14.3103 4.77034 15.3559C4.59622 15.5817 4.43532 15.7972 4.28823 16.0001C4.43532 16.203 4.59622 16.4184 4.77034 16.6442C5.57652 17.6898 6.49312 18.7358 7.49873 19.7083C10.29 22.4076 13.1932 24.0001 16 24.0001C18.8068 24.0001 21.71 22.4076 24.5013 19.7083C25.5069 18.7358 26.4235 17.6898 27.2297 16.6442C27.4038 16.4184 27.5647 16.203 27.7118 16.0001C27.5647 15.7972 27.4038 15.5817 27.2297 15.3559ZM10.667 16C10.667 18.9455 13.0548 21.3334 16.0003 21.3334C18.9458 21.3334 21.3337 18.9455 21.3337 16C21.3337 13.0545 18.9458 10.6667 16.0003 10.6667C13.0548 10.6667 10.667 13.0545 10.667 16ZM18.6669 16C18.6669 17.4728 17.4729 18.6667 16.0002 18.6667C14.5274 18.6667 13.3335 17.4728 13.3335 16C13.3335 14.5273 14.5274 13.3334 16.0002 13.3334C17.4729 13.3334 18.6669 14.5273 18.6669 16Z" fill="#2E2E30"/>
</g>
</svg>
