<svg width="24" height="24" viewBox="0 0 24 24" fill="none" xmlns="http://www.w3.org/2000/svg">
<g id="24 / reactions / laughing">
<path id="Exclude" fill-rule="evenodd" clip-rule="evenodd" d="M22 12C22 17.5228 17.5228 22 12 22C9.39482 22 7.02232 21.0038 5.24266 19.3715L9.5085 17.1131C10.4439 17.762 11.7937 17.9875 13.5 17.5C16.3 16.7 16.3333 14.8333 16 14H15.3889L21.8963 10.5549C21.9646 11.0267 22 11.5092 22 12ZM21.8384 10.1999L18.9211 4.78208C20.4076 6.20783 21.4546 8.0883 21.8384 10.1999ZM17.7391 3.80977C18.1578 4.10372 18.5529 4.42895 18.9211 4.78208L18.5 4L17.7391 3.80977ZM10.7899 2.07247L17.7391 3.80977C16.1147 2.66938 14.1355 2 12 2C11.5904 2 11.1866 2.02462 10.7899 2.07247ZM10.1999 2.16158C10.3947 2.12618 10.5914 2.09642 10.7899 2.07247L10.5 2L10.1999 2.16158ZM10.1999 2.16158L4.78208 5.07888C6.20783 3.59238 8.0883 2.54542 10.1999 2.16158ZM3.84062 6.21722C4.12642 5.81469 4.44126 5.43423 4.78208 5.07888L4 5.5L3.84062 6.21722ZM2.15887 13.7851L3.84062 6.21722C2.68146 7.8498 2 9.84532 2 12C2 12.6093 2.05449 13.2059 2.15887 13.7851ZM2.68151 15.6358C2.45051 15.0442 2.27422 14.4253 2.15887 13.7851L2 14.5L2.68151 15.6358ZM4.39903 18.4984C4.66243 18.8062 4.94421 19.0978 5.24266 19.3715L5 19.5L4.39903 18.4984ZM2.68151 15.6358L4.39903 18.4984C3.67668 17.6543 3.0925 16.6884 2.68151 15.6358ZM21.8384 10.1999C21.8598 10.3175 21.8791 10.4359 21.8963 10.5549L22 10.5L21.8384 10.1999ZM15.3889 14H8C8 15.2812 8.52527 16.4311 9.5085 17.1131L15.3889 14Z" fill="#A59E86"/>
<path id="icon" fill-rule="evenodd" clip-rule="evenodd" d="M1 12C1 18.0751 5.92487 23 12 23C18.0751 23 23 18.0751 23 12C23 5.92487 18.0751 1 12 1C5.92487 1 1 5.92487 1 12ZM21 12C21 16.9706 16.9706 21 12 21C7.02944 21 3 16.9706 3 12C3 7.02944 7.02944 3 12 3C16.9706 3 21 7.02944 21 12ZM12.0321 19C8.67459 19 6.80643 17.2316 6.80643 14V13H17.1158L17.1434 13.9715C17.2358 17.2145 15.4003 19 12.0321 19ZM15.0875 15C14.8526 16.3955 13.9089 17 12.0321 17C10.1563 17 9.18179 16.3902 8.89677 15H15.0875ZM14 8H17V10H14V8ZM10 8H7V10H10V8Z" fill="black"/>
</g>
</svg>
