<svg width="32" height="32" viewBox="0 0 32 32" fill="none" xmlns="http://www.w3.org/2000/svg">
<g id="24 / gadgets / mobile">
<path id="icon" fill-rule="evenodd" clip-rule="evenodd" d="M9.33366 2.66663H22.667C24.1398 2.66663 25.3337 3.86053 25.3337 5.33329V26.6666C25.3337 28.1394 24.1398 29.3333 22.667 29.3333H9.33366C7.8609 29.3333 6.66699 28.1394 6.66699 26.6666V5.33329C6.66699 3.86053 7.8609 2.66663 9.33366 2.66663ZM9.33366 5.33329V26.6666H22.667V5.33329H9.33366ZM17.3337 24C17.3337 24.7363 16.7367 25.3333 16.0003 25.3333C15.2639 25.3333 14.667 24.7363 14.667 24C14.667 23.2636 15.2639 22.6666 16.0003 22.6666C16.7367 22.6666 17.3337 23.2636 17.3337 24Z" fill="black"/>
</g>
</svg>
