<svg width="32" height="32" viewBox="0 0 32 32" fill="none" xmlns="http://www.w3.org/2000/svg">
<g id="24 / basic / pencil-create">
<path id="icon" fill-rule="evenodd" clip-rule="evenodd" d="M21.9168 2.66675C22.7898 2.66675 23.6266 3.01531 24.2378 3.63131L28.3723 7.76584C28.9879 8.38141 29.3337 9.21631 29.3337 10.0869C29.3337 10.9574 28.9879 11.7923 28.3723 12.4079L13.277 27.4984C12.3457 28.5727 11.0255 29.2328 9.51313 29.3365H2.66699V28.0032L2.67132 22.3832C2.78491 20.9772 3.43855 19.6699 4.43565 18.7913L19.5942 3.63292C20.2088 3.01452 21.0448 2.66675 21.9168 2.66675ZM9.41897 26.6732C10.1313 26.6228 10.7943 26.2913 11.3267 25.6822L21.4093 15.5997L16.4034 10.5937L6.2618 20.7329C5.72159 21.2106 5.3874 21.8791 5.33366 22.4905V26.6707L9.41897 26.6732ZM18.2893 8.70826L23.2949 13.7141L26.4867 10.5222C26.6022 10.4068 26.6671 10.2502 26.6671 10.0869C26.6671 9.92355 26.6022 9.76694 26.4867 9.65146L22.3485 5.51322C22.2343 5.39814 22.0789 5.33341 21.9168 5.33341C21.7547 5.33341 21.5993 5.39814 21.4851 5.51322L18.2893 8.70826Z" fill="black"/>
</g>
</svg>
