<svg width="32" height="32" viewBox="0 0 32 32" fill="none" xmlns="http://www.w3.org/2000/svg">
<g id="24 / maps / route">
<path id="icon" fill-rule="evenodd" clip-rule="evenodd" d="M8.00033 29.3334C9.74195 29.3334 11.2236 28.2203 11.7727 26.6667H23.3337C26.6474 26.6667 29.3337 23.9804 29.3337 20.6667C29.3337 17.353 26.6474 14.6667 23.3337 14.6667H8.66699C6.82604 14.6667 5.33366 13.1743 5.33366 11.3334C5.33366 9.4924 6.82604 8.00002 8.66699 8.00002H12.7814L11.0575 9.72388L12.9431 11.6095L17.8859 6.66669L12.9431 1.72388L11.0575 3.60949L12.7814 5.33335H8.66699C5.35328 5.33335 2.66699 8.01964 2.66699 11.3334C2.66699 14.6471 5.35328 17.3334 8.66699 17.3334H23.3337C25.1746 17.3334 26.667 18.8257 26.667 20.6667C26.667 22.5076 25.1746 24 23.3337 24H11.7727C11.2236 22.4464 9.74195 21.3334 8.00033 21.3334C5.79119 21.3334 4.00033 23.1242 4.00033 25.3334C4.00033 27.5425 5.79119 29.3334 8.00033 29.3334ZM6.66699 25.3334C6.66699 24.597 7.26395 24 8.00033 24C8.7367 24 9.33366 24.597 9.33366 25.3334C9.33366 26.0697 8.7367 26.6667 8.00033 26.6667C7.26395 26.6667 6.66699 26.0697 6.66699 25.3334ZM24.0003 2.6667C26.2095 2.6667 28.0003 4.45756 28.0003 6.6667C28.0003 8.87584 26.2095 10.6667 24.0003 10.6667C21.7912 10.6667 20.0003 8.87584 20.0003 6.6667C20.0003 4.45756 21.7912 2.6667 24.0003 2.6667ZM22.667 6.6667C22.667 5.93032 23.2639 5.33337 24.0003 5.33337C24.7367 5.33337 25.3337 5.93032 25.3337 6.6667C25.3337 7.40308 24.7367 8.00003 24.0003 8.00003C23.2639 8.00003 22.667 7.40308 22.667 6.6667Z" fill="black"/>
</g>
</svg>
