<svg width="32" height="32" viewBox="0 0 32 32" fill="none" xmlns="http://www.w3.org/2000/svg">
<g id="24 / finance / strongbox">
<path id="icon" fill-rule="evenodd" clip-rule="evenodd" d="M26.9094 2.66663H5.09123C3.75236 2.66663 2.66699 3.86053 2.66699 5.33329V26.6666C2.66699 28.1394 3.75236 29.3333 5.09123 29.3333H6.66699V30.6666H9.33366V29.3333H22.667V30.6666H25.3337V29.3333H26.9094C28.2483 29.3333 29.3337 28.1394 29.3337 26.6666V5.33329C29.3337 3.86053 28.2483 2.66663 26.9094 2.66663ZM5.33366 26.6666V5.33329H26.667V7.99996H25.3337V10.6666H26.667V21.3333H25.3337V24H26.667V26.6666H5.33366ZM23.6098 21.7238L21.7242 23.6095L18.7096 20.5949C17.9156 21.0641 16.9894 21.3333 16.0003 21.3333C15.0113 21.3333 14.0851 21.0641 13.2911 20.5949L10.2765 23.6095L8.39087 21.7238L11.4054 18.7093C10.9362 17.9153 10.667 16.989 10.667 16C10.667 15.0109 10.9362 14.0847 11.4054 13.2907L8.39087 10.2761L10.2765 8.39051L13.291 11.4051C14.0851 10.9359 15.0112 10.6666 16.0003 10.6666C16.9894 10.6666 17.9156 10.9359 18.7096 11.4051L21.7242 8.39051L23.6098 10.2761L20.5953 13.2907C21.0644 14.0847 21.3337 15.0109 21.3337 16C21.3337 16.989 21.0644 17.9152 20.5952 18.7092L23.6098 21.7238ZM18.667 16C18.667 17.4727 17.4731 18.6666 16.0003 18.6666C14.5276 18.6666 13.3337 17.4727 13.3337 16C13.3337 14.5272 14.5276 13.3333 16.0003 13.3333C17.4731 13.3333 18.667 14.5272 18.667 16Z" fill="#2E2E30"/>
</g>
</svg>
