<svg width="32" height="32" viewBox="0 0 32 32" fill="none" xmlns="http://www.w3.org/2000/svg">
<g id="24 / basic / thumbs-up">
<path id="icon" fill-rule="evenodd" clip-rule="evenodd" d="M29.3336 15.9989C29.3336 13.7556 27.8264 11.9989 25.3336 11.9989H21.2362L21.2733 11.8979C21.3103 11.7979 21.4144 11.5234 21.5157 11.2565L21.5159 11.2561L21.5163 11.2551L21.5164 11.2546L21.517 11.2531C21.6065 11.0172 21.6935 10.7878 21.7297 10.6907C21.9832 10.0103 22.1682 9.46201 22.3179 8.91903C22.5441 8.09837 22.6669 7.35901 22.6669 6.66553C22.6669 4.70285 21.4561 3.48382 19.6646 2.96218C18.8566 2.7269 18.1533 2.66541 17.3336 2.66553H16.6943L16.294 3.16404C15.8418 3.72718 14.9536 4.7421 13.9296 5.91219C12.0406 8.07073 9.68949 10.7574 8.76075 12.11C8.51977 12.0385 8.26454 12 8.00033 12H5.33366C3.8609 12 2.66699 13.1939 2.66699 14.6667V26.6667C2.66699 28.1395 3.8609 29.3334 5.33366 29.3334H8.00033C8.91648 29.3334 9.72472 28.8714 10.2048 28.1676C10.6093 28.4293 11.0606 28.6476 11.5511 28.8231C12.6742 29.2249 13.7881 29.3483 14.7128 29.3314L24.0003 29.3322C27.6738 29.3322 29.3336 23.9236 29.3336 15.9989ZM12.4495 26.3123C11.2696 25.8902 10.667 25.2018 10.667 23.9989V14.6667V14.6655C10.667 14.3453 10.7262 14.0617 10.8559 13.7588C11.0889 13.2149 13.2029 10.8031 15.2065 8.51711L15.2066 8.5171L15.2066 8.51708L15.2066 8.51705C16.2407 7.33727 17.2454 6.19103 17.9469 5.35238C18.2822 5.37752 18.5982 5.42904 18.9192 5.52252C19.6832 5.745 20.0003 6.06424 20.0003 6.66554C20.0003 7.08765 19.9149 7.60196 19.7472 8.21035C19.6219 8.66497 19.4595 9.14603 19.2309 9.75975C19.1986 9.84641 19.1183 10.0581 19.0327 10.2837L19.0319 10.2859L19.0314 10.2871C18.9265 10.5636 18.8139 10.8603 18.7723 10.9729C18.5989 11.4418 18.4847 11.787 18.4065 12.1006C18.0744 13.434 18.4076 14.6655 20.0003 14.6655H25.3337C26.2553 14.6655 26.667 15.1454 26.667 15.9989C26.667 22.3865 25.3538 26.6655 24.0003 26.6655H14.667L14.6177 26.6663C14.0342 26.6768 13.2145 26.586 12.4495 26.3123ZM5.33372 26.6667V14.6667H8.00039V26.6667H5.33372Z" fill="#2E2E30"/>
</g>
</svg>
