<svg width="70" height="54" viewBox="0 0 70 54" fill="none" xmlns="http://www.w3.org/2000/svg">
<path d="M20.9969 43.5144L21.8544 42.9998C21.8457 42.9854 21.8367 42.9711 21.8273 42.9571L20.9969 43.5144ZM11.5195 29.3935L10.6875 29.9482L10.6892 29.9508L11.5195 29.3935ZM12.6815 24.1416L12.1268 23.3095L12.6815 24.1416ZM18.4183 25.0819L19.2755 24.5669L18.4183 25.0819ZM23.042 34.4917C23.3406 34.9563 23.9594 35.0908 24.4239 34.7921C24.8885 34.4935 25.023 33.8748 24.7243 33.4102L23.042 34.4917ZM14.1067 18.1832L14.9547 17.6532C14.9351 17.6219 14.9139 17.5918 14.891 17.5629L14.1067 18.1832ZM21.0053 13.0091L21.8758 12.5169C21.8658 12.4992 21.8553 12.4819 21.8442 12.4648L21.0053 13.0091ZM29.0491 29.2694C29.3209 29.7501 29.931 29.9196 30.4117 29.6478C30.8925 29.376 31.0619 28.7659 30.7901 28.2851L29.0491 29.2694ZM18.7174 9.48266L17.823 9.92988C17.8397 9.96324 17.8582 9.99564 17.8785 10.0269L18.7174 9.48266ZM19.5798 4.30882L20.1344 5.14089L19.5798 4.30882ZM25.6161 6.03364L24.7586 6.54816L24.7586 6.54816L25.6161 6.03364ZM27.904 9.55973L27.0096 10.0069C27.0172 10.0221 27.0251 10.0371 27.0335 10.0519L27.904 9.55973ZM35.9478 25.8202C36.2195 26.301 36.8296 26.4704 37.3104 26.1986C37.7912 25.9268 37.9606 25.3167 37.6888 24.8359L35.9478 25.8202ZM29.9278 4.30794L30.3832 5.1982L29.9278 4.30794ZM35.1018 6.0334L35.9599 5.52004C35.9561 5.51367 35.9522 5.50734 35.9483 5.50106L35.1018 6.0334ZM45.1426 22.8187L44.2845 23.3321C44.5153 23.718 44.9754 23.9024 45.4089 23.7826C45.8424 23.6629 46.1426 23.2685 46.1426 22.8187H45.1426ZM49.4543 47.826L50.0945 48.5942L49.4543 47.826ZM57.8319 5.83749C57.308 5.66284 56.7417 5.946 56.567 6.46995C56.3924 6.99389 56.6755 7.56021 57.1995 7.73486L57.8319 5.83749ZM60.0121 14.2442C59.8447 14.7705 60.1356 15.3328 60.6619 15.5002C61.1882 15.6676 61.7506 15.3767 61.918 14.8504L60.0121 14.2442ZM61.1699 0.709937C60.6294 0.596777 60.0994 0.943259 59.9863 1.48383C59.8731 2.02439 60.2196 2.55434 60.7601 2.6675L61.1699 0.709937ZM66.9139 13.8498C66.7411 14.3744 67.0264 14.9397 67.551 15.1124C68.0755 15.2851 68.6408 14.9999 68.8135 14.4753L66.9139 13.8498ZM21.8273 42.9571L12.3499 28.8362L10.6892 29.9508L20.1666 44.0717L21.8273 42.9571ZM12.3516 28.8388C12.1881 28.5936 11.9243 27.9026 11.9701 27.1108C12.0125 26.3773 12.3149 25.5879 13.2363 24.9736L12.1268 23.3095C10.6129 24.3189 10.0469 25.7242 9.97341 26.9953C9.90328 28.208 10.2761 29.3312 10.6875 29.9482L12.3516 28.8388ZM13.2363 24.9736C15.2637 23.622 17.0055 24.672 17.5611 25.5968L19.2755 24.5669C18.2424 22.847 15.2732 21.2119 12.1268 23.3095L13.2363 24.9736ZM17.5611 25.5968C19.5847 28.9657 20.4453 30.4525 23.042 34.4917L24.7243 33.4102C22.147 29.401 21.3022 27.9408 19.2755 24.5669L17.5611 25.5968ZM19.2663 24.5519L14.9547 17.6532L13.2587 18.7132L17.5703 25.6119L19.2663 24.5519ZM14.891 17.5629C13.8824 16.2875 14.2396 14.0412 15.8523 12.8805L14.6839 11.2572C12.3206 12.9582 11.4798 16.4736 13.3223 18.8035L14.891 17.5629ZM15.8523 12.8805C16.5563 12.3737 17.4527 12.2733 18.3226 12.4724C19.2201 12.6777 19.9031 13.1586 20.1732 13.5638L21.8374 12.4544C21.21 11.5134 20.0184 10.8087 18.7687 10.5227C17.4913 10.2305 15.9678 10.3331 14.6839 11.2572L15.8523 12.8805ZM20.1348 13.5012L29.0491 29.2694L30.7901 28.2851L21.8758 12.5169L20.1348 13.5012ZM21.8442 12.4648L19.5563 8.93839L17.8785 10.0269L20.1664 13.5533L21.8442 12.4648ZM19.6119 9.03545C19.2178 8.24735 19.0001 7.48766 19.0466 6.8376C19.0885 6.25041 19.3486 5.66473 20.1344 5.14089L19.0251 3.47674C17.7413 4.33255 17.139 5.47146 17.0516 6.69512C16.9687 7.85589 17.3547 8.99331 17.823 9.92988L19.6119 9.03545ZM20.1344 5.14089C21.5089 4.22464 22.3783 4.32648 22.9704 4.61868C23.6733 4.96551 24.2557 5.71008 24.7586 6.54816L26.4736 5.51913C25.941 4.63147 25.1097 3.44408 23.8555 2.82517C22.4906 2.15163 20.8595 2.25393 19.0251 3.47674L20.1344 5.14089ZM24.7586 6.54816C25.3685 7.56465 25.8159 8.18526 26.173 8.68352C26.5243 9.17388 26.7607 9.50917 27.0096 10.0069L28.7984 9.11253C28.4724 8.46047 28.1533 8.01344 27.7987 7.51857C27.4497 7.03161 27.0406 6.46408 26.4736 5.51913L24.7586 6.54816ZM27.0335 10.0519L35.9478 25.8202L37.6888 24.8359L28.7745 9.0676L27.0335 10.0519ZM28.8028 9.12146C28.6344 8.77601 28.5032 8.03834 28.7042 7.24151C28.8939 6.48929 29.371 5.71604 30.3832 5.1982L29.4723 3.41768C27.8975 4.22335 27.0811 5.49844 26.7649 6.75245C26.4599 7.96187 26.6104 9.18834 27.0052 9.99801L28.8028 9.12146ZM30.3832 5.1982C31.2186 4.77084 31.9754 4.83521 32.6345 5.13177C33.3278 5.44372 33.9111 6.01848 34.2552 6.56574L35.9483 5.50106C35.4301 4.67702 34.5643 3.8069 33.4551 3.30787C32.3118 2.79345 30.9128 2.68073 29.4723 3.41768L30.3832 5.1982ZM34.2436 6.54675L44.2845 23.3321L46.0008 22.3054L35.9599 5.52004L34.2436 6.54675ZM46.1426 22.8187V15.9201H44.1426V22.8187H46.1426ZM46.1426 15.9201C46.1426 15.2097 46.3765 14.3499 46.9249 13.687C47.4452 13.0582 48.3085 12.5307 49.7533 12.5307V10.5307C47.7487 10.5307 46.3067 11.2968 45.384 12.4121C44.4894 13.4933 44.1426 14.8282 44.1426 15.9201H46.1426ZM49.7533 12.5307C51.1142 12.5307 51.802 13.1042 52.2007 13.7542C52.6413 14.4726 52.766 15.3652 52.766 15.9201H54.766C54.766 15.1577 54.609 13.8556 53.9056 12.7086C53.1602 11.4933 51.8417 10.5307 49.7533 10.5307V12.5307ZM52.766 15.9201V37.478H54.766V15.9201H52.766ZM52.766 37.478C52.766 39.2069 52.9242 43.6327 48.8141 47.0578L50.0945 48.5942C54.9783 44.5243 54.766 39.1984 54.766 37.478H52.766ZM48.8141 47.0578C46.284 49.1662 44.2206 50.3932 42.4088 51.0979C40.6083 51.798 39.0113 52 37.3816 52V54C39.2013 54 41.0536 53.7708 43.1337 52.9619C45.2023 52.1574 47.4506 50.7974 50.0945 48.5942L48.8141 47.0578ZM37.3816 52C34.1408 52 26.2215 50.2777 21.8544 42.9998L20.1395 44.0289C24.9941 52.1192 33.7238 54 37.3816 54V52ZM57.1995 7.73486C57.8873 7.96412 59.4612 8.88616 60.0164 10.5517L61.9137 9.91929C61.0892 7.44568 58.8688 6.18312 57.8319 5.83749L57.1995 7.73486ZM60.0164 10.5517C60.6094 12.3309 60.2832 13.3919 60.0121 14.2442L61.918 14.8504C62.2449 13.8227 62.7004 12.2793 61.9137 9.91929L60.0164 10.5517ZM60.7601 2.6675C64.1377 3.37454 65.6436 5.324 66.4059 6.84867L68.1948 5.95426C67.2324 4.0295 65.289 1.57221 61.1699 0.709937L60.7601 2.6675ZM66.4059 6.84867C67.1955 8.42792 67.9656 10.6556 66.9139 13.8498L68.8135 14.4753C70.0844 10.6154 69.1298 7.82442 68.1948 5.95426L66.4059 6.84867Z" fill="#F9F9F9"/>
<path d="M12.1333 46.6149C12.6675 46.7551 13.2141 46.4356 13.3543 45.9014C13.4945 45.3672 13.175 44.8206 12.6408 44.6804L12.1333 46.6149ZM8.72048 42.4302L9.64656 42.0529L9.64656 42.0529L8.72048 42.4302ZM9.41045 38.3681C9.54323 37.832 9.21629 37.2898 8.68021 37.157C8.14412 37.0242 7.6019 37.3511 7.46911 37.8872L9.41045 38.3681ZM9.88203 52.6194C10.4288 52.6972 10.9351 52.3169 11.0128 51.7701C11.0905 51.2233 10.7103 50.7171 10.1635 50.6394L9.88203 52.6194ZM3.39409 47.3391L2.53067 47.8436L2.53067 47.8436L3.39409 47.3391ZM3.29485 39.8815C3.43306 39.3468 3.11163 38.8013 2.57692 38.6631C2.0422 38.5249 1.49669 38.8463 1.35849 39.381L3.29485 39.8815ZM12.6408 44.6804C11.9396 44.4964 10.309 43.6788 9.64656 42.0529L7.79439 42.8075C8.77822 45.2222 11.0761 46.3375 12.1333 46.6149L12.6408 44.6804ZM9.64656 42.0529C8.93893 40.3161 9.19543 39.2362 9.41045 38.3681L7.46911 37.8872C7.20984 38.934 6.85574 40.5037 7.79439 42.8075L9.64656 42.0529ZM10.1635 50.6394C6.74712 50.1537 5.11746 48.3064 4.25751 46.8346L2.53067 47.8436C3.61629 49.7016 5.71553 52.0272 9.88203 52.6194L10.1635 50.6394ZM4.25751 46.8346C3.36676 45.3101 2.45331 43.1374 3.29485 39.8815L1.35849 39.381C0.34157 43.3154 1.47584 46.0383 2.53067 47.8436L4.25751 46.8346Z" fill="#F9F9F9"/>
</svg>
