<svg width="41" height="32" viewBox="0 0 41 32" fill="none" xmlns="http://www.w3.org/2000/svg">
<path d="M12.3256 25.2514L13.1831 24.7369C13.1744 24.7224 13.1653 24.7082 13.1559 24.6941L12.3256 25.2514ZM6.83041 17.0639L5.99836 17.6186L6.00009 17.6211L6.83041 17.0639ZM7.50417 14.0187L6.94945 13.1866L7.50417 14.0187ZM10.8305 14.5639L11.6877 14.0489L10.8305 14.5639ZM13.1579 20.2471C13.4566 20.7117 14.0753 20.8462 14.5399 20.5475C15.0044 20.2489 15.1389 19.6302 14.8403 19.1656L13.1579 20.2471ZM8.33048 10.5638L9.17848 10.0338C9.15895 10.0026 9.1377 9.97244 9.11484 9.94353L8.33048 10.5638ZM12.3305 7.56379L13.201 7.07166C13.191 7.05396 13.1804 7.03658 13.1694 7.01952L12.3305 7.56379ZM16.6287 17.1987C16.9005 17.6794 17.5105 17.8488 17.9913 17.577C18.4721 17.3052 18.6415 16.6952 18.3697 16.2144L16.6287 17.1987ZM11.0039 5.5191L10.1095 5.96631C10.1262 5.99967 10.1447 6.03208 10.165 6.06337L11.0039 5.5191ZM11.5039 2.51919L12.0586 3.35126L11.5039 2.51919ZM15.0039 3.51928L14.1464 4.0338L15.0039 3.51928ZM16.3305 5.56379L15.436 6.01099C15.4436 6.02616 15.4516 6.04114 15.46 6.05592L16.3305 5.56379ZM20.6287 15.1987C20.9005 15.6795 21.5105 15.8489 21.9913 15.5771C22.4721 15.3053 22.6415 14.6953 22.3697 14.2145L20.6287 15.1987ZM17.5039 2.51868L17.9594 3.40894L17.5039 2.51868ZM20.5039 3.51914L21.3621 3.00578C21.3583 2.99941 21.3544 2.99308 21.3504 2.9868L20.5039 3.51914ZM26.3258 13.2517L25.4676 13.765C25.6985 14.151 26.1586 14.3353 26.5921 14.2155C27.0256 14.0958 27.3258 13.7014 27.3258 13.2517H26.3258ZM28.8258 27.7514L29.466 28.5196L28.8258 27.7514ZM33.8162 3.00693C33.2923 2.83228 32.726 3.11544 32.5513 3.63939C32.3767 4.16333 32.6598 4.72965 33.1838 4.9043L33.8162 3.00693ZM34.547 8.15256C34.3796 8.67886 34.6706 9.24122 35.1969 9.40862C35.7232 9.57603 36.2856 9.28508 36.453 8.75878L34.547 8.15256ZM35.7049 0.0212159C35.1643 -0.0919441 34.6344 0.254538 34.5212 0.795106C34.4081 1.33567 34.7545 1.86562 35.2951 1.97878L35.7049 0.0212159ZM38.5502 7.91986C38.3774 8.44444 38.6627 9.00971 39.1873 9.18244C39.7118 9.35516 40.2771 9.06992 40.4498 8.54534L38.5502 7.91986ZM13.1559 24.6941L7.66074 16.5066L6.00009 17.6211L11.4953 25.8087L13.1559 24.6941ZM7.66246 16.5092C7.66247 16.5092 7.65824 16.5027 7.65086 16.4888C7.64363 16.4752 7.63457 16.4566 7.62445 16.4331C7.60401 16.3856 7.58204 16.3242 7.56273 16.2518C7.52355 16.1049 7.50126 15.9351 7.51112 15.7645C7.52918 15.4522 7.64917 15.1239 8.05889 14.8507L6.94945 13.1866C5.94715 13.8549 5.5636 14.7991 5.51445 15.6491C5.46868 16.4406 5.70777 17.1827 5.99836 17.6186L7.66246 16.5092ZM8.05889 14.8507C8.56928 14.5104 8.98437 14.5062 9.28556 14.5912C9.62714 14.6875 9.87417 14.9139 9.97323 15.0788L11.6877 14.0489C10.9883 12.8847 9.00884 11.8136 6.94945 13.1866L8.05889 14.8507ZM9.97323 15.0788C11.146 17.0311 11.6483 17.8988 13.1579 20.2471L14.8403 19.1656C13.35 16.8473 12.8634 16.0062 11.6877 14.0489L9.97323 15.0788ZM11.6785 14.0339L9.17848 10.0338L7.48248 11.0938L9.98246 15.0939L11.6785 14.0339ZM9.11484 9.94353C8.70523 9.4256 8.81075 8.38973 9.58808 7.83024L8.41973 6.20699C6.89173 7.30679 6.30258 9.61173 7.54612 11.1841L9.11484 9.94353ZM9.58808 7.83024C9.87451 7.62408 10.2625 7.56637 10.6813 7.66218C11.1277 7.76432 11.4168 7.99611 11.4984 8.11848L13.1625 7.00911C12.7237 6.35091 11.926 5.89529 11.1273 5.71256C10.3011 5.52352 9.28596 5.5835 8.41973 6.20699L9.58808 7.83024ZM11.4599 8.05593L16.6287 17.1987L18.3697 16.2144L13.201 7.07166L11.4599 8.05593ZM13.1694 7.01952L11.8428 4.97483L10.165 6.06337L11.4916 8.10806L13.1694 7.01952ZM11.8983 5.07188C11.6855 4.64612 11.5946 4.28499 11.6139 4.01537C11.6286 3.80862 11.7076 3.58525 12.0586 3.35126L10.9492 1.68712C10.1002 2.25308 9.67916 3.02967 9.61893 3.87288C9.5632 4.65322 9.82236 5.39208 10.1095 5.96631L11.8983 5.07188ZM12.0586 3.35126C12.7589 2.8844 13.103 2.98634 13.284 3.07565C13.5756 3.21959 13.8611 3.55827 14.1464 4.0338L15.8614 3.00477C15.5463 2.47967 15.0121 1.69816 14.169 1.28214C13.2152 0.811493 12.1095 0.913694 10.9492 1.68712L12.0586 3.35126ZM14.1464 4.0338C14.5091 4.63821 14.7765 5.0092 14.9852 5.30048C15.1883 5.58385 15.308 5.75479 15.436 6.01099L17.2249 5.11659C17.0197 4.70609 16.8172 4.42342 16.6109 4.13553C16.4103 3.85555 16.1811 3.53764 15.8614 3.00477L14.1464 4.0338ZM15.46 6.05592L20.6287 15.1987L22.3697 14.2145L17.201 5.07166L15.46 6.05592ZM17.2293 5.12551C17.1792 5.02274 17.1072 4.69771 17.2019 4.32237C17.2853 3.99164 17.4907 3.64872 17.9594 3.40894L17.0485 1.62842C16.0171 2.15604 15.4725 3.00079 15.2626 3.83332C15.0639 4.62124 15.1552 5.43507 15.4316 6.00206L17.2293 5.12551ZM17.9594 3.40894C18.3166 3.22619 18.6205 3.25335 18.9009 3.37953C19.2156 3.52111 19.4944 3.79232 19.6574 4.05148L21.3504 2.9868C21.0134 2.45086 20.452 1.88429 19.7216 1.55564C18.9569 1.2116 18.0108 1.13608 17.0485 1.62842L17.9594 3.40894ZM19.6457 4.03249L25.4676 13.765L27.184 12.7383L21.3621 3.00578L19.6457 4.03249ZM27.3258 13.2517V9.25165H25.3258V13.2517H27.3258ZM27.3258 9.25165C27.3258 8.91989 27.4377 8.52116 27.683 8.22471C27.9001 7.96231 28.2791 7.7066 28.9992 7.7066V5.7066C27.7193 5.7066 26.7616 6.20091 26.142 6.94979C25.5506 7.66462 25.3258 8.53841 25.3258 9.25165H27.3258ZM28.9992 7.7066C29.6354 7.7066 29.9017 7.95734 30.06 8.21552C30.2603 8.54203 30.3258 8.97356 30.3258 9.25165H32.3258C32.3258 8.76599 32.228 7.92499 31.765 7.16992C31.26 6.3465 30.3629 5.7066 28.9992 5.7066V7.7066ZM30.3258 9.25165V21.7514H32.3258V9.25165H30.3258ZM30.3258 21.7514C30.3258 22.7557 30.4062 25.1327 28.1856 26.9832L29.466 28.5196C32.4603 26.0244 32.3258 22.7471 32.3258 21.7514H30.3258ZM28.1856 26.9832C26.7425 28.1858 25.585 28.8693 24.5884 29.2569C23.6032 29.64 22.7309 29.7514 21.8258 29.7514V31.7514C22.9208 31.7514 24.0484 31.6128 25.3133 31.1209C26.5667 30.6335 27.9091 29.817 29.466 28.5196L28.1856 26.9832ZM21.8258 29.7514C20.0343 29.7514 15.6128 28.7861 13.1831 24.7369L11.4681 25.766C14.3854 30.6276 19.6174 31.7514 21.8258 31.7514V29.7514ZM33.1838 4.9043C33.5092 5.01278 34.286 5.47586 34.5513 6.27185L36.4487 5.63939C35.914 4.03538 34.4908 3.23178 33.8162 3.00693L33.1838 4.9043ZM34.5513 6.27185C34.8545 7.18142 34.6925 7.69526 34.547 8.15256L36.453 8.75878C36.6542 8.12606 36.9455 7.12982 36.4487 5.63939L34.5513 6.27185ZM35.2951 1.97878C37.0977 2.35612 37.8789 3.37978 38.2789 4.17975L40.0678 3.28535C39.4678 2.08527 38.249 0.553795 35.7049 0.0212159L35.2951 1.97878ZM38.2789 4.17975C38.7062 5.03433 39.1139 6.20765 38.5502 7.91986L40.4498 8.54534C41.2328 6.16747 40.6405 4.43083 40.0678 3.28535L38.2789 4.17975Z" fill="#2E2E30"/>
<path d="M7.07943 27.4557C7.61363 27.5959 8.16032 27.2764 8.30049 26.7422C8.44065 26.208 8.12123 25.6613 7.58702 25.5212L7.07943 27.4557ZM5.20727 24.6229L6.13335 24.2456L5.20727 24.6229ZM6.01518 22.3686C6.14797 21.8325 5.82103 21.2903 5.28494 21.1575C4.74886 21.0247 4.20663 21.3517 4.07385 21.8878L6.01518 22.3686ZM5.82163 30.9468C6.36841 31.0246 6.87468 30.6443 6.95241 30.0975C7.03014 29.5507 6.64989 29.0445 6.1031 28.9667L5.82163 30.9468ZM2.11891 27.4692L1.25549 27.9737L2.11891 27.4692ZM2.46818 23.2502C2.60639 22.7155 2.28496 22.17 1.75024 22.0318C1.21553 21.8936 0.670023 22.215 0.531817 22.7498L2.46818 23.2502ZM7.58702 25.5212C7.25521 25.4341 6.44994 25.0226 6.13335 24.2456L4.28118 25.0002C4.91914 26.566 6.39167 27.2752 7.07943 27.4557L7.58702 25.5212ZM6.13335 24.2456C5.77159 23.3577 5.89981 22.8344 6.01518 22.3686L4.07385 21.8878C3.91422 22.5322 3.6884 23.5453 4.28118 25.0002L6.13335 24.2456ZM6.1031 28.9667C4.2798 28.7076 3.43354 27.7369 2.98233 26.9647L1.25549 27.9737C1.93237 29.1321 3.24821 30.581 5.82163 30.9468L6.1031 28.9667ZM2.98233 26.9647C2.50033 26.1398 2.01708 24.9955 2.46818 23.2502L0.531817 22.7498C-0.0946592 25.1736 0.609411 26.8679 1.25549 27.9737L2.98233 26.9647Z" fill="#2E2E30"/>
</svg>
